Sucker Punch is a 2011 action-fantasy thriller film, about the fantasies of a young woman who is committed to a mental institution. It was written by Steve Shibuya and Zack Snyder and directed by Snyder. The film features an ensemble cast starring Emily Browning as the central character (Babydoll)and Abbie Cornish as the second main character (Sweet Pea), as well as Oscar Isaac (Blue).The film was released in both conventional and IMAX theatres in the US at midnight on March 25, 2011.A young girl is institutionalized by her wicked stepfather. Retreating to an alternative reality as a coping strategy, she envisions a plan which will help her escape from the facility. 



Format : AVI
Format/Info : Audio Video Interleave
Format profile : OpenDML
File size : 1.05 GiB
Duration : 1h 47mn
Overall bit rate : 1 398 Kbps
Writing library : MPlayer

Video
ID : 0
Format : MPEG-4 Visual
Codec ID : XVID
Codec ID/Hint : XviD
Duration : 1h 47mn
Bit rate : 52.3 Kbps
Width : 672 pixels
Height : 288 pixels
Display aspect ratio : 2.35:1
Frame rate : 23.976 fps
Color space : YUV
Chroma subsampling : 4:2:0
Compression mode : Lossy
Bits/(Pixel*Frame) : 0.011
Stream size : 40.1 MiB (4%)

Audio
ID : 1
Format : AC-3
Format/Info : Audio Coding 3
Codec ID : 2000
Duration : 1h 47mn
Bit rate mode : Constant
Bit rate : 384 Kbps
Channel(s) : 6 channels
Sampling rate : 48.0 KHz
Compression mode : Lossy
Stream size : 295 MiB (27%)
Alignment : Aligned on interleaves